<svg xmlns="http://www.w3.org/2000/svg" xmlns:xlink="http://www.w3.org/1999/xlink" class="httpgd" width="1638.00" height="1017.00" viewBox="0 0 1310.40 813.60">
<defs>
  <style type='text/css'><![CDATA[
    .httpgd line, .httpgd polyline, .httpgd polygon, .httpgd path, .httpgd rect, .httpgd circle {
      fill: none;
      stroke: #000000;
      stroke-linecap: round;
      stroke-linejoin: round;
      stroke-miterlimit: 10.00;
    }
  ]]></style>
<clipPath id="c0"><rect x="0.00" y="0.00" width="1310.40" height="813.60"/></clipPath>
<clipPath id="c1"><rect x="0.00" y="0.00" width="561.60" height="438.09"/></clipPath>
<clipPath id="c2"><rect x="0.00" y="0.00" width="1310.40" height="813.60"/></clipPath>
<clipPath id="c3"><rect x="0.00" y="0.00" width="561.60" height="438.09"/></clipPath>
<clipPath id="c4"><rect x="0.00" y="0.00" width="1310.40" height="813.60"/></clipPath>
<clipPath id="c5"><rect x="0.00" y="0.00" width="561.60" height="438.09"/></clipPath>
<clipPath id="c6"><rect x="561.60" y="0.00" width="374.40" height="438.09"/></clipPath>
<clipPath id="c7"><rect x="0.00" y="0.00" width="1310.40" height="813.60"/></clipPath>
<clipPath id="c8"><rect x="561.60" y="0.00" width="374.40" height="438.09"/></clipPath>
<clipPath id="c9"><rect x="936.00" y="0.00" width="374.40" height="438.09"/></clipPath>
<clipPath id="c10"><rect x="0.00" y="0.00" width="1310.40" height="813.60"/></clipPath>
<clipPath id="c11"><rect x="936.00" y="0.00" width="374.40" height="438.09"/></clipPath>
<clipPath id="c12"><rect x="0.00" y="438.09" width="561.60" height="375.51"/></clipPath>
<clipPath id="c13"><rect x="0.00" y="0.00" width="1310.40" height="813.60"/></clipPath>
<clipPath id="c14"><rect x="0.00" y="438.09" width="561.60" height="375.51"/></clipPath>
<clipPath id="c15"><rect x="561.60" y="438.09" width="374.40" height="375.51"/></clipPath>
<clipPath id="c16"><rect x="0.00" y="0.00" width="1310.40" height="813.60"/></clipPath>
<clipPath id="c17"><rect x="561.60" y="438.09" width="374.40" height="375.51"/></clipPath>
<clipPath id="c18"><rect x="936.00" y="438.09" width="374.40" height="375.51"/></clipPath>
<clipPath id="c19"><rect x="0.00" y="0.00" width="1310.40" height="813.60"/></clipPath>
<clipPath id="c20"><rect x="936.00" y="438.09" width="374.40" height="375.51"/></clipPath>
</defs>
<rect width="100%" height="100%" style="stroke: none;fill: #FFFFFF;"/>
<g clip-path="url(#c0)">
</g><g clip-path="url(#c1)">
<rect x="85.54" y="42.63" width="466.56" height="352.84" style="stroke-width: 0.90;stroke: none;fill: #33A02C;"/>
</g><g clip-path="url(#c3)">
<line x1="0.00" y1="201.40" x2="561.60" y2="201.40" style="stroke-width: 0.22;stroke: #B3B3B3;stroke-opacity: 0.60; stroke-dasharray: 4.00, 4.00;"/>
<line x1="85.54" y1="438.09" x2="85.54" y2="0.00" style="stroke-width: 0.22;stroke: #B3B3B3;stroke-opacity: 0.60; stroke-dasharray: 4.00, 4.00;"/>
<line x1="163.30" y1="438.09" x2="163.30" y2="0.00" style="stroke-width: 0.22;stroke: #B3B3B3;stroke-opacity: 0.60; stroke-dasharray: 4.00, 4.00;"/>
<line x1="241.06" y1="438.09" x2="241.06" y2="0.00" style="stroke-width: 0.22;stroke: #B3B3B3;stroke-opacity: 0.60; stroke-dasharray: 4.00, 4.00;"/>
<line x1="318.82" y1="438.09" x2="318.82" y2="0.00" style="stroke-width: 0.22;stroke: #B3B3B3;stroke-opacity: 0.60; stroke-dasharray: 4.00, 4.00;"/>
<line x1="396.58" y1="438.09" x2="396.58" y2="0.00" style="stroke-width: 0.22;stroke: #B3B3B3;stroke-opacity: 0.60; stroke-dasharray: 4.00, 4.00;"/>
<line x1="474.34" y1="438.09" x2="474.34" y2="0.00" style="stroke-width: 0.22;stroke: #B3B3B3;stroke-opacity: 0.60; stroke-dasharray: 4.00, 4.00;"/>
<line x1="552.10" y1="438.09" x2="552.10" y2="0.00" style="stroke-width: 0.22;stroke: #B3B3B3;stroke-opacity: 0.60; stroke-dasharray: 4.00, 4.00;"/>
</g><g clip-path="url(#c4)">
<g><text x="80.94" y="221.88" text-anchor="end" style="font-family: Arial;font-size: 7.92px;font-style: italic;" textLength="68.13px" lengthAdjust="spacingAndGlyphs">Missense_Mutation</text></g>
<line x1="85.54" y1="409.58" x2="552.10" y2="409.58" style="stroke-width: 0.90;"/>
<line x1="85.54" y1="409.58" x2="85.54" y2="414.33" style="stroke-width: 0.90;"/>
<line x1="163.30" y1="409.58" x2="163.30" y2="414.33" style="stroke-width: 0.90;"/>
<line x1="241.06" y1="409.58" x2="241.06" y2="414.33" style="stroke-width: 0.90;"/>
<line x1="318.82" y1="409.58" x2="318.82" y2="414.33" style="stroke-width: 0.90;"/>
<line x1="396.58" y1="409.58" x2="396.58" y2="414.33" style="stroke-width: 0.90;"/>
<line x1="474.34" y1="409.58" x2="474.34" y2="414.33" style="stroke-width: 0.90;"/>
<line x1="552.10" y1="409.58" x2="552.10" y2="414.33" style="stroke-width: 0.90;"/>
<g><text transform="translate(88.09,419.08) rotate(-90.00)" text-anchor="end" style="font-family: Arial;font-size: 7.13px;font-style: italic;" textLength="3.97px" lengthAdjust="spacingAndGlyphs">0</text></g>
<g><text transform="translate(165.85,419.08) rotate(-90.00)" text-anchor="end" style="font-family: Arial;font-size: 7.13px;font-style: italic;" textLength="3.97px" lengthAdjust="spacingAndGlyphs">1</text></g>
<g><text transform="translate(243.61,419.08) rotate(-90.00)" text-anchor="end" style="font-family: Arial;font-size: 7.13px;font-style: italic;" textLength="3.97px" lengthAdjust="spacingAndGlyphs">2</text></g>
<g><text transform="translate(321.37,419.08) rotate(-90.00)" text-anchor="end" style="font-family: Arial;font-size: 7.13px;font-style: italic;" textLength="3.97px" lengthAdjust="spacingAndGlyphs">3</text></g>
<g><text transform="translate(399.13,419.08) rotate(-90.00)" text-anchor="end" style="font-family: Arial;font-size: 7.13px;font-style: italic;" textLength="3.97px" lengthAdjust="spacingAndGlyphs">4</text></g>
<g><text transform="translate(476.89,419.08) rotate(-90.00)" text-anchor="end" style="font-family: Arial;font-size: 7.13px;font-style: italic;" textLength="3.97px" lengthAdjust="spacingAndGlyphs">5</text></g>
<g><text transform="translate(554.65,419.08) rotate(-90.00)" text-anchor="end" style="font-family: Arial;font-size: 7.13px;font-style: italic;" textLength="3.97px" lengthAdjust="spacingAndGlyphs">6</text></g>
</g><g clip-path="url(#c5)">
<g><text x="85.54" y="17.09" style="font-family: Arial;font-size: 7.92px;font-weight: bold;" textLength="79.98px" lengthAdjust="spacingAndGlyphs">Variant Classification</text></g>
</g><g clip-path="url(#c6)">
<rect x="590.11" y="42.63" width="336.38" height="352.84" style="stroke-width: 0.90;stroke: none;fill: #8DD3C7;"/>
<line x1="561.60" y1="201.40" x2="936.00" y2="201.40" style="stroke-width: 0.22;stroke: #B3B3B3;stroke-opacity: 0.60; stroke-dasharray: 4.00, 4.00;"/>
<line x1="590.11" y1="438.09" x2="590.11" y2="0.00" style="stroke-width: 0.22;stroke: #B3B3B3;stroke-opacity: 0.60; stroke-dasharray: 4.00, 4.00;"/>
<line x1="646.18" y1="438.09" x2="646.18" y2="0.00" style="stroke-width: 0.22;stroke: #B3B3B3;stroke-opacity: 0.60; stroke-dasharray: 4.00, 4.00;"/>
<line x1="702.24" y1="438.09" x2="702.24" y2="0.00" style="stroke-width: 0.22;stroke: #B3B3B3;stroke-opacity: 0.60; stroke-dasharray: 4.00, 4.00;"/>
<line x1="758.30" y1="438.09" x2="758.30" y2="0.00" style="stroke-width: 0.22;stroke: #B3B3B3;stroke-opacity: 0.60; stroke-dasharray: 4.00, 4.00;"/>
<line x1="814.37" y1="438.09" x2="814.37" y2="0.00" style="stroke-width: 0.22;stroke: #B3B3B3;stroke-opacity: 0.60; stroke-dasharray: 4.00, 4.00;"/>
<line x1="870.43" y1="438.09" x2="870.43" y2="0.00" style="stroke-width: 0.22;stroke: #B3B3B3;stroke-opacity: 0.60; stroke-dasharray: 4.00, 4.00;"/>
<line x1="926.50" y1="438.09" x2="926.50" y2="0.00" style="stroke-width: 0.22;stroke: #B3B3B3;stroke-opacity: 0.60; stroke-dasharray: 4.00, 4.00;"/>
</g><g clip-path="url(#c7)">
<g><text x="581.96" y="221.88" text-anchor="end" style="font-family: Arial;font-size: 7.92px;font-style: italic;" textLength="16.25px" lengthAdjust="spacingAndGlyphs">SNP</text></g>
<line x1="590.11" y1="409.58" x2="926.50" y2="409.58" style="stroke-width: 0.90;"/>
<line x1="590.11" y1="409.58" x2="590.11" y2="414.33" style="stroke-width: 0.90;"/>
<line x1="646.18" y1="409.58" x2="646.18" y2="414.33" style="stroke-width: 0.90;"/>
<line x1="702.24" y1="409.58" x2="702.24" y2="414.33" style="stroke-width: 0.90;"/>
<line x1="758.30" y1="409.58" x2="758.30" y2="414.33" style="stroke-width: 0.90;"/>
<line x1="814.37" y1="409.58" x2="814.37" y2="414.33" style="stroke-width: 0.90;"/>
<line x1="870.43" y1="409.58" x2="870.43" y2="414.33" style="stroke-width: 0.90;"/>
<line x1="926.50" y1="409.58" x2="926.50" y2="414.33" style="stroke-width: 0.90;"/>
<g><text transform="translate(592.66,419.08) rotate(-90.00)" text-anchor="end" style="font-family: Arial;font-size: 7.13px;font-style: italic;" textLength="3.97px" lengthAdjust="spacingAndGlyphs">0</text></g>
<g><text transform="translate(648.73,419.08) rotate(-90.00)" text-anchor="end" style="font-family: Arial;font-size: 7.13px;font-style: italic;" textLength="3.97px" lengthAdjust="spacingAndGlyphs">1</text></g>
<g><text transform="translate(704.79,419.08) rotate(-90.00)" text-anchor="end" style="font-family: Arial;font-size: 7.13px;font-style: italic;" textLength="3.97px" lengthAdjust="spacingAndGlyphs">2</text></g>
<g><text transform="translate(760.86,419.08) rotate(-90.00)" text-anchor="end" style="font-family: Arial;font-size: 7.13px;font-style: italic;" textLength="3.97px" lengthAdjust="spacingAndGlyphs">3</text></g>
<g><text transform="translate(816.92,419.08) rotate(-90.00)" text-anchor="end" style="font-family: Arial;font-size: 7.13px;font-style: italic;" textLength="3.97px" lengthAdjust="spacingAndGlyphs">4</text></g>
<g><text transform="translate(872.98,419.08) rotate(-90.00)" text-anchor="end" style="font-family: Arial;font-size: 7.13px;font-style: italic;" textLength="3.97px" lengthAdjust="spacingAndGlyphs">5</text></g>
<g><text transform="translate(929.05,419.08) rotate(-90.00)" text-anchor="end" style="font-family: Arial;font-size: 7.13px;font-style: italic;" textLength="3.97px" lengthAdjust="spacingAndGlyphs">6</text></g>
</g><g clip-path="url(#c8)">
<g><text x="590.11" y="17.09" style="font-family: Arial;font-size: 7.92px;font-weight: bold;" textLength="46.44px" lengthAdjust="spacingAndGlyphs">Variant Type</text></g>
</g><g clip-path="url(#c9)">
<rect x="964.51" y="345.06" width="112.13" height="50.41" style="stroke-width: 0.90;stroke: none;fill: #2196F3;"/>
<rect x="964.51" y="284.57" width="112.13" height="50.41" style="stroke-width: 0.90;stroke: none;fill: #3F51B5;"/>
<rect x="964.51" y="224.09" width="336.38" height="50.41" style="stroke-width: 0.90;stroke: none;fill: #F44336;"/>
<rect x="964.51" y="163.60" width="0.00" height="50.41" style="stroke-width: 0.90;stroke: none;fill: #FFC107;"/>
<rect x="964.51" y="103.11" width="112.13" height="50.41" style="stroke-width: 0.90;stroke: none;fill: #4CAF50;"/>
<rect x="964.51" y="42.63" width="0.00" height="50.41" style="stroke-width: 0.90;stroke: none;fill: #FF9800;"/>
</g><g clip-path="url(#c10)">
<g><text x="956.23" y="373.09" text-anchor="end" style="font-family: Arial;font-size: 7.92px;font-style: italic;" textLength="15.60px" lengthAdjust="spacingAndGlyphs">C&gt;A</text></g>
<g><text x="956.40" y="312.61" text-anchor="end" style="font-family: Arial;font-size: 7.92px;font-style: italic;" textLength="16.47px" lengthAdjust="spacingAndGlyphs">C&gt;G</text></g>
<g><text x="956.14" y="252.12" text-anchor="end" style="font-family: Arial;font-size: 7.92px;font-style: italic;" textLength="15.16px" lengthAdjust="spacingAndGlyphs">C&gt;T</text></g>
<g><text x="956.14" y="191.63" text-anchor="end" style="font-family: Arial;font-size: 7.92px;font-style: italic;" textLength="15.16px" lengthAdjust="spacingAndGlyphs">T&gt;C</text></g>
<g><text x="956.05" y="131.15" text-anchor="end" style="font-family: Arial;font-size: 7.92px;font-style: italic;" textLength="14.72px" lengthAdjust="spacingAndGlyphs">T&gt;A</text></g>
<g><text x="956.23" y="70.66" text-anchor="end" style="font-family: Arial;font-size: 7.92px;font-style: italic;" textLength="15.60px" lengthAdjust="spacingAndGlyphs">T&gt;G</text></g>
<line x1="964.51" y1="409.58" x2="1300.90" y2="409.58" style="stroke-width: 0.90;"/>
<line x1="964.51" y1="409.58" x2="964.51" y2="414.33" style="stroke-width: 0.90;"/>
<line x1="1076.64" y1="409.58" x2="1076.64" y2="414.33" style="stroke-width: 0.90;"/>
<line x1="1188.77" y1="409.58" x2="1188.77" y2="414.33" style="stroke-width: 0.90;"/>
<line x1="1300.90" y1="409.58" x2="1300.90" y2="414.33" style="stroke-width: 0.90;"/>
<g><text transform="translate(967.06,419.08) rotate(-90.00)" text-anchor="end" style="font-family: Arial;font-size: 7.13px;font-style: italic;" textLength="3.97px" lengthAdjust="spacingAndGlyphs">0</text></g>
<g><text transform="translate(1079.19,419.08) rotate(-90.00)" text-anchor="end" style="font-family: Arial;font-size: 7.13px;font-style: italic;" textLength="3.97px" lengthAdjust="spacingAndGlyphs">1</text></g>
<g><text transform="translate(1191.32,419.08) rotate(-90.00)" text-anchor="end" style="font-family: Arial;font-size: 7.13px;font-style: italic;" textLength="3.97px" lengthAdjust="spacingAndGlyphs">2</text></g>
<g><text transform="translate(1303.45,419.08) rotate(-90.00)" text-anchor="end" style="font-family: Arial;font-size: 7.13px;font-style: italic;" textLength="3.97px" lengthAdjust="spacingAndGlyphs">3</text></g>
</g><g clip-path="url(#c11)">
<g><text x="964.51" y="17.09" style="font-family: Arial;font-size: 7.92px;font-weight: bold;" textLength="39.55px" lengthAdjust="spacingAndGlyphs">SNV Class</text></g>
<line x1="936.00" y1="367.74" x2="1310.40" y2="367.74" style="stroke-width: 0.22;stroke: #B3B3B3;stroke-opacity: 0.60; stroke-dasharray: 4.00, 4.00;"/>
<line x1="936.00" y1="317.34" x2="1310.40" y2="317.34" style="stroke-width: 0.22;stroke: #B3B3B3;stroke-opacity: 0.60; stroke-dasharray: 4.00, 4.00;"/>
<line x1="936.00" y1="266.93" x2="1310.40" y2="266.93" style="stroke-width: 0.22;stroke: #B3B3B3;stroke-opacity: 0.60; stroke-dasharray: 4.00, 4.00;"/>
<line x1="936.00" y1="216.53" x2="1310.40" y2="216.53" style="stroke-width: 0.22;stroke: #B3B3B3;stroke-opacity: 0.60; stroke-dasharray: 4.00, 4.00;"/>
<line x1="936.00" y1="166.12" x2="1310.40" y2="166.12" style="stroke-width: 0.22;stroke: #B3B3B3;stroke-opacity: 0.60; stroke-dasharray: 4.00, 4.00;"/>
<line x1="936.00" y1="115.71" x2="1310.40" y2="115.71" style="stroke-width: 0.22;stroke: #B3B3B3;stroke-opacity: 0.60; stroke-dasharray: 4.00, 4.00;"/>
<line x1="964.51" y1="438.09" x2="964.51" y2="0.00" style="stroke-width: 0.22;stroke: #B3B3B3;stroke-opacity: 0.60; stroke-dasharray: 4.00, 4.00;"/>
<line x1="1076.64" y1="438.09" x2="1076.64" y2="0.00" style="stroke-width: 0.22;stroke: #B3B3B3;stroke-opacity: 0.60; stroke-dasharray: 4.00, 4.00;"/>
<line x1="1188.77" y1="438.09" x2="1188.77" y2="0.00" style="stroke-width: 0.22;stroke: #B3B3B3;stroke-opacity: 0.60; stroke-dasharray: 4.00, 4.00;"/>
<line x1="1300.90" y1="438.09" x2="1300.90" y2="0.00" style="stroke-width: 0.22;stroke: #B3B3B3;stroke-opacity: 0.60; stroke-dasharray: 4.00, 4.00;"/>
</g><g clip-path="url(#c12)">
<rect x="38.75" y="466.60" width="85.10" height="315.33" style="stroke-width: 0.90;stroke: none;fill: #33A02C;"/>
<rect x="140.88" y="624.27" width="85.10" height="157.67" style="stroke-width: 0.90;stroke: none;fill: #33A02C;"/>
<rect x="243.00" y="624.27" width="85.10" height="157.67" style="stroke-width: 0.90;stroke: none;fill: #33A02C;"/>
<rect x="345.12" y="624.27" width="85.10" height="157.67" style="stroke-width: 0.90;stroke: none;fill: #33A02C;"/>
<rect x="447.25" y="624.27" width="85.10" height="157.67" style="stroke-width: 0.90;stroke: none;fill: #33A02C;"/>
</g><g clip-path="url(#c13)">
<line x1="21.86" y1="781.93" x2="21.86" y2="466.60" style="stroke-width: 0.90;"/>
<line x1="21.86" y1="781.93" x2="17.11" y2="781.93" style="stroke-width: 0.90;"/>
<line x1="21.86" y1="781.93" x2="17.11" y2="781.93" style="stroke-width: 0.90;"/>
<line x1="21.86" y1="624.27" x2="17.11" y2="624.27" style="stroke-width: 0.90;"/>
<line x1="21.86" y1="466.60" x2="17.11" y2="466.60" style="stroke-width: 0.90;"/>
<g><text x="11.92" y="784.76" text-anchor="middle" style="font-family: Arial;font-size: 7.92px;font-style: italic;" textLength="4.40px" lengthAdjust="spacingAndGlyphs">0</text></g>
<g><text x="11.92" y="627.10" text-anchor="middle" style="font-family: Arial;font-size: 7.92px;font-style: italic;" textLength="4.40px" lengthAdjust="spacingAndGlyphs">1</text></g>
<g><text x="11.92" y="469.43" text-anchor="middle" style="font-family: Arial;font-size: 7.92px;font-style: italic;" textLength="4.40px" lengthAdjust="spacingAndGlyphs">2</text></g>
</g><g clip-path="url(#c14)">
<g><text x="19.01" y="447.60" style="font-family: Arial;font-size: 7.92px;font-weight: bold;" textLength="74.71px" lengthAdjust="spacingAndGlyphs">Variants per sample</text></g>
</g><g clip-path="url(#c15)">
<polygon points="689.50,625.85 817.61,625.85 817.61,625.85 689.50,625.85" style="stroke-width: 0.90;stroke: none;fill: #D3D3D3;" />
<line x1="689.50" y1="625.85" x2="817.61" y2="625.85" style="stroke-width: 3.15;stroke: #33A02C;stroke-linecap: butt;"/>
<line x1="753.55" y1="625.85" x2="753.55" y2="625.85" style="stroke-width: 1.05;stroke: #33A02C;"/>
<line x1="753.55" y1="625.85" x2="753.55" y2="625.85" style="stroke-width: 1.05;stroke: #33A02C;"/>
<line x1="753.55" y1="625.85" x2="753.55" y2="625.85" style="stroke-width: 1.05;stroke: #33A02C;"/>
<line x1="753.55" y1="625.85" x2="753.55" y2="625.85" style="stroke-width: 1.05;stroke: #33A02C;"/>
<polygon points="689.50,625.85 817.61,625.85 817.61,625.85 689.50,625.85" style="stroke-width: 1.05;stroke: #33A02C;" />
<g><text x="753.55" y="821.20" text-anchor="middle" style="font-family: Arial;font-size: 7.92px;" textLength="75.46px" lengthAdjust="spacingAndGlyphs">Variant_Classification</text></g>
<g><text transform="translate(550.20,625.85) rotate(-90.00)" text-anchor="middle" style="font-family: Arial;font-size: 7.92px;" textLength="5.71px" lengthAdjust="spacingAndGlyphs">N</text></g>
</g><g clip-path="url(#c16)">
<line x1="580.61" y1="813.60" x2="580.61" y2="625.85" style="stroke-width: 0.90;"/>
<line x1="580.61" y1="625.85" x2="575.86" y2="625.85" style="stroke-width: 0.90;"/>
<g><text x="571.10" y="628.68" text-anchor="end" style="font-family: Arial;font-size: 7.92px;font-style: italic;" textLength="4.40px" lengthAdjust="spacingAndGlyphs">1</text></g>
</g><g clip-path="url(#c17)">
<g><text x="580.61" y="447.60" style="font-family: Arial;font-size: 7.92px;font-weight: bold;" textLength="82.18px" lengthAdjust="spacingAndGlyphs">Variant Classification </text></g>
<g><text x="580.61" y="457.10" style="font-family: Arial;font-size: 7.92px;font-weight: bold;" textLength="35.16px" lengthAdjust="spacingAndGlyphs">summary</text></g>
<line x1="561.60" y1="994.46" x2="936.00" y2="994.46" style="stroke-width: 0.22;stroke: #B3B3B3;stroke-opacity: 0.60; stroke-dasharray: 4.00, 4.00;"/>
<line x1="561.60" y1="994.46" x2="936.00" y2="994.46" style="stroke-width: 0.22;stroke: #B3B3B3;stroke-opacity: 0.60; stroke-dasharray: 4.00, 4.00;"/>
<line x1="561.60" y1="994.46" x2="936.00" y2="994.46" style="stroke-width: 0.22;stroke: #B3B3B3;stroke-opacity: 0.60; stroke-dasharray: 4.00, 4.00;"/>
<line x1="561.60" y1="625.85" x2="936.00" y2="625.85" style="stroke-width: 0.22;stroke: #B3B3B3;stroke-opacity: 0.60; stroke-dasharray: 4.00, 4.00;"/>
<line x1="753.55" y1="813.60" x2="753.55" y2="438.09" style="stroke-width: 0.22;stroke: #B3B3B3;stroke-opacity: 0.60; stroke-dasharray: 4.00, 4.00;"/>
</g><g clip-path="url(#c18)">
<rect x="974.02" y="478.40" width="213.18" height="294.89" style="stroke-width: 0.90;stroke: none;fill: #33A02C;"/>
</g><g clip-path="url(#c19)">
<g><text x="968.06" y="628.68" text-anchor="end" style="font-family: Arial;font-size: 7.92px;font-style: italic;" textLength="27.24px" lengthAdjust="spacingAndGlyphs">KDM6A</text></g>
<line x1="974.02" y1="785.09" x2="1258.26" y2="785.09" style="stroke-width: 0.90;"/>
<line x1="974.02" y1="785.09" x2="974.02" y2="789.84" style="stroke-width: 0.90;"/>
<line x1="1045.08" y1="785.09" x2="1045.08" y2="789.84" style="stroke-width: 0.90;"/>
<line x1="1151.67" y1="785.09" x2="1151.67" y2="789.84" style="stroke-width: 0.90;"/>
<line x1="1258.26" y1="785.09" x2="1258.26" y2="789.84" style="stroke-width: 0.90;"/>
<g><text transform="translate(976.57,794.59) rotate(-90.00)" text-anchor="end" style="font-family: Arial;font-size: 7.13px;font-style: italic;" textLength="3.97px" lengthAdjust="spacingAndGlyphs">0</text></g>
<g><text transform="translate(1047.63,794.59) rotate(-90.00)" text-anchor="end" style="font-family: Arial;font-size: 7.13px;font-style: italic;" textLength="3.97px" lengthAdjust="spacingAndGlyphs">2</text></g>
<g><text transform="translate(1154.22,794.59) rotate(-90.00)" text-anchor="end" style="font-family: Arial;font-size: 7.13px;font-style: italic;" textLength="3.97px" lengthAdjust="spacingAndGlyphs">5</text></g>
<g><text transform="translate(1260.81,794.59) rotate(-90.00)" text-anchor="end" style="font-family: Arial;font-size: 7.13px;font-style: italic;" textLength="3.97px" lengthAdjust="spacingAndGlyphs">8</text></g>
</g><g clip-path="url(#c20)">
<g><text x="974.02" y="450.43" style="font-family: Arial;font-size: 7.92px;font-weight: bold;" textLength="24.90px" lengthAdjust="spacingAndGlyphs">Top 10</text></g>
<g><text x="974.02" y="459.93" style="font-family: Arial;font-size: 7.92px;font-weight: bold;" textLength="55.81px" lengthAdjust="spacingAndGlyphs">mutated genes</text></g>
<g><text x="1222.73" y="628.34" style="font-family: Arial;font-size: 7.13px;font-weight: bold;font-style: italic;" textLength="18.24px" lengthAdjust="spacingAndGlyphs">100%</text></g>
<line x1="936.00" y1="625.85" x2="1310.40" y2="625.85" style="stroke-width: 0.22;stroke: #B3B3B3;stroke-opacity: 0.60; stroke-dasharray: 4.00, 4.00;"/>
<line x1="974.02" y1="813.60" x2="974.02" y2="438.09" style="stroke-width: 0.22;stroke: #B3B3B3;stroke-opacity: 0.60; stroke-dasharray: 4.00, 4.00;"/>
<line x1="1045.08" y1="813.60" x2="1045.08" y2="438.09" style="stroke-width: 0.22;stroke: #B3B3B3;stroke-opacity: 0.60; stroke-dasharray: 4.00, 4.00;"/>
<line x1="1151.67" y1="813.60" x2="1151.67" y2="438.09" style="stroke-width: 0.22;stroke: #B3B3B3;stroke-opacity: 0.60; stroke-dasharray: 4.00, 4.00;"/>
<line x1="1258.26" y1="813.60" x2="1258.26" y2="438.09" style="stroke-width: 0.22;stroke: #B3B3B3;stroke-opacity: 0.60; stroke-dasharray: 4.00, 4.00;"/>
</g>
</svg>